<svg width="45" height="42" viewBox="0 0 45 42" fill="none" xmlns="http://www.w3.org/2000/svg">
<rect width="45" height="42" fill="black"/>
<path d="M19.08 29V28.12L20.66 27.9C20.9133 27.86 21.0867 27.7667 21.18 27.62C21.2733 27.4733 21.32 27.2333 21.32 26.9V15.94H20.18C19.7 15.94 19.2933 15.9867 18.96 16.08C18.6267 16.16 18.3333 16.32 18.08 16.56C17.84 16.7867 17.62 17.1133 17.42 17.54C17.2333 17.9533 17.0267 18.4933 16.8 19.16L15.8 18.92L16.56 14.94H28.06L28.78 18.92L27.76 19.16C27.5467 18.4933 27.34 17.9533 27.14 17.54C26.9533 17.1133 26.74 16.7867 26.5 16.56C26.2733 16.32 25.9867 16.16 25.64 16.08C25.3067 15.9867 24.9067 15.94 24.44 15.94H23.3V26.98C23.3 27.3 23.34 27.5267 23.42 27.66C23.5133 27.78 23.7 27.86 23.98 27.9L25.52 28.12V29H19.08Z" fill="white"/>
</svg>
